<svg xmlns="http://www.w3.org/2000/svg" viewBox="0 0 620.4757842968751 251.59999999999997" width="620.4757842968751" height="251.59999999999997" fill="none">
  <g transform="translate(71.39999999999999 71.39999999999999) scale(4.533333333333333)" fill="#ffba00">
    <path d="M5 2.5 L13.5 2.5 L5.5 21.5 L5 21.5 Q2.5 21.5 2.5 19 L2.5 5 Q2.5 2.5 5 2.5 Z"/>
    <path d="M16.5 2.5 L19 2.5 Q21.5 2.5 21.5 5 L21.5 19 Q21.5 21.5 19 21.5 L8.5 21.5 Z"/>
  </g>
  <g transform="translate(203.99999999999997,146.69776) scale(0.07072,-0.07072)"><path d="M57 0L57 591L134 591L134 0Z" transform="translate(0,0)" fill="#ffba00"/><path d="M57 0L57 591L151 591L266 137L383 591L474 591L474 0L406 0L406 468L293 0L239 0L126 468L126 0Z" transform="translate(341.42370605468756,0)" fill="#ffba00"/><path d="M57 0L57 591L248 591Q301 591 331.5 566.5Q362 542 362 492L362 385Q362 350 352.5 319Q343 288 316 269Q289 250 238 250L138 250L138 0ZM138 295L213 295Q249 295 267 319Q285 343 285 395L285 461Q285 506 268.5 526.5Q252 547 227 547L138 547Z" transform="translate(1022.9385986328125,0)" fill="#ffba00"/><path d="M57 0L57 591L317 591L317 536L138 536L138 338L283 338L283 278L138 278L138 54L317 54L317 0Z" transform="translate(1561.847412109375,0)" fill="#ffba00"/><path d="M203 -12Q158 -12 123 -1.5Q88 9 68 42Q48 75 48 141L48 467Q48 522 68 550.5Q88 579 123.5 589Q159 599 204 599Q250 599 283.5 588.5Q317 578 336.5 550Q356 522 356 467L356 359L279 359L279 469Q279 505 269 522.5Q259 540 242 545.5Q225 551 203 551Q181 551 164 545.5Q147 540 137.5 522.5Q128 505 128 469L128 117Q128 81 137.5 63.5Q147 46 164 40.5Q181 35 203 35Q226 35 242.5 40.5Q259 46 269 63.5Q279 81 279 117L279 213L356 213L356 141Q356 74 336.5 41.5Q317 9 283 -1.5Q249 -12 203 -12Z" transform="translate(2051.968994140625,0)" fill="#ffba00"/><path d="M203 -12Q158 -12 123 -1.5Q88 9 68 42Q48 75 48 141L48 467Q48 522 68 550.5Q88 579 123.5 589Q159 599 204 599Q250 599 283.5 588.5Q317 578 336.5 550Q356 522 356 467L356 359L279 359L279 469Q279 505 269 522.5Q259 540 242 545.5Q225 551 203 551Q181 551 164 545.5Q147 540 137.5 522.5Q128 505 128 469L128 117Q128 81 137.5 63.5Q147 46 164 40.5Q181 35 203 35Q226 35 242.5 40.5Q259 46 269 63.5Q279 81 279 117L279 213L356 213L356 141Q356 74 336.5 41.5Q317 9 283 -1.5Q249 -12 203 -12Z" transform="translate(2600.60546875,0)" fill="#ffba00"/><path d="M13 0L137 591L241 591L364 0L279 0L251 130L121 130L95 0ZM124 170L249 170L187 507Z" transform="translate(3149.241943359375,0)" fill="#ffba00"/><path d="M57 0L57 591L247 591Q298 591 329 566.5Q360 542 360 492L360 422Q360 394 352 372.5Q344 351 330 338Q316 325 297.5 320Q279 315 265 314L265 315Q284 315 302 310.5Q320 306 333 294Q349 280 358 258Q367 236 367 206L367 122Q367 72 350.5 45.5Q334 19 305 9.5Q276 0 236 0ZM135 43L221 43Q242 43 257 49Q272 55 280.5 73.5Q289 92 289 127L289 205Q289 251 267.5 266Q246 281 213 281L135 281ZM135 331L211 331Q247 331 266 351.5Q285 372 285 413L285 479Q285 514 267.5 530.5Q250 547 225 547L135 547Z" transform="translate(3676.1197509765625,0)" fill="#ffba00"/><path d="M57 0L57 591L134 591L134 54L290 54L290 0Z" transform="translate(4236.2109375,0)" fill="#ffba00"/><path d="M57 0L57 591L317 591L317 536L138 536L138 338L283 338L283 278L138 278L138 54L317 54L317 0Z" transform="translate(4683.574462890625,0)" fill="#ffba00"/></g>
</svg>
